<svg id="visual" viewBox="0 0 960 540" width="960" height="540" xmlns="http://www.w3.org/2000/svg"
    xmlns:xlink="http://www.w3.org/1999/xlink" version="1.1">
    <path
        d="M0 82L22.8 83.8C45.7 85.7 91.3 89.3 137 84C182.7 78.7 228.3 64.3 274 61.7C319.7 59 365.3 68 411.2 68C457 68 503 59 548.8 59C594.7 59 640.3 68 686 68.8C731.7 69.7 777.3 62.3 823 58.7C868.7 55 914.3 55 937.2 55L960 55L960 0L937.2 0C914.3 0 868.7 0 823 0C777.3 0 731.7 0 686 0C640.3 0 594.7 0 548.8 0C503 0 457 0 411.2 0C365.3 0 319.7 0 274 0C228.3 0 182.7 0 137 0C91.3 0 45.7 0 22.8 0L0 0Z"
        fill="#377ebb"></path>
    <path
        d="M0 114L22.8 113.2C45.7 112.3 91.3 110.7 137 104.5C182.7 98.3 228.3 87.7 274 85C319.7 82.3 365.3 87.7 411.2 87.7C457 87.7 503 82.3 548.8 84.2C594.7 86 640.3 95 686 96.7C731.7 98.3 777.3 92.7 823 88.2C868.7 83.7 914.3 80.3 937.2 78.7L960 77L960 53L937.2 53C914.3 53 868.7 53 823 56.7C777.3 60.3 731.7 67.7 686 66.8C640.3 66 594.7 57 548.8 57C503 57 457 66 411.2 66C365.3 66 319.7 57 274 59.7C228.3 62.3 182.7 76.7 137 82C91.3 87.3 45.7 83.7 22.8 81.8L0 80Z"
        fill="#3c88c8"></path>
    <path
        d="M0 201L22.8 204.5C45.7 208 91.3 215 137 215.8C182.7 216.7 228.3 211.3 274 201.5C319.7 191.7 365.3 177.3 411.2 181.8C457 186.3 503 209.7 548.8 214.2C594.7 218.7 640.3 204.3 686 194.5C731.7 184.7 777.3 179.3 823 180.2C868.7 181 914.3 188 937.2 191.5L960 195L960 75L937.2 76.7C914.3 78.3 868.7 81.7 823 86.2C777.3 90.7 731.7 96.3 686 94.7C640.3 93 594.7 84 548.8 82.2C503 80.3 457 85.7 411.2 85.7C365.3 85.7 319.7 80.3 274 83C228.3 85.7 182.7 96.3 137 102.5C91.3 108.7 45.7 110.3 22.8 111.2L0 112Z"
        fill="#4292d5"></path>
    <path
        d="M0 249L22.8 249C45.7 249 91.3 249 137 250C182.7 251 228.3 253 274 246.8C319.7 240.7 365.3 226.3 411.2 227.2C457 228 503 244 548.8 246.7C594.7 249.3 640.3 238.7 686 231.5C731.7 224.3 777.3 220.7 823 223.3C868.7 226 914.3 235 937.2 239.5L960 244L960 193L937.2 189.5C914.3 186 868.7 179 823 178.2C777.3 177.3 731.7 182.7 686 192.5C640.3 202.3 594.7 216.7 548.8 212.2C503 207.7 457 184.3 411.2 179.8C365.3 175.3 319.7 189.7 274 199.5C228.3 209.3 182.7 214.7 137 213.8C91.3 213 45.7 206 22.8 202.5L0 199Z"
        fill="#479ce3"></path>
    <path
        d="M0 282L22.8 282.8C45.7 283.7 91.3 285.3 137 290.7C182.7 296 228.3 305 274 302.3C319.7 299.7 365.3 285.3 411.2 286.3C457 287.3 503 303.7 548.8 306.3C594.7 309 640.3 298 686 289C731.7 280 777.3 273 823 272.2C868.7 271.3 914.3 276.7 937.2 279.3L960 282L960 242L937.2 237.5C914.3 233 868.7 224 823 221.3C777.3 218.7 731.7 222.3 686 229.5C640.3 236.7 594.7 247.3 548.8 244.7C503 242 457 226 411.2 225.2C365.3 224.3 319.7 238.7 274 244.8C228.3 251 182.7 249 137 248C91.3 247 45.7 247 22.8 247L0 247Z"
        fill="#4ca7f0"></path>
    <path
        d="M0 314L22.8 315C45.7 316 91.3 318 137 322.5C182.7 327 228.3 334 274 332.2C319.7 330.3 365.3 319.7 411.2 321.5C457 323.3 503 337.7 548.8 340.3C594.7 343 640.3 334 686 324.2C731.7 314.3 777.3 303.7 823 300C868.7 296.3 914.3 299.7 937.2 301.3L960 303L960 280L937.2 277.3C914.3 274.7 868.7 269.3 823 270.2C777.3 271 731.7 278 686 287C640.3 296 594.7 307 548.8 304.3C503 301.7 457 285.3 411.2 284.3C365.3 283.3 319.7 297.7 274 300.3C228.3 303 182.7 294 137 288.7C91.3 283.3 45.7 281.7 22.8 280.8L0 280Z"
        fill="#57aff7"></path>
    <path
        d="M0 352L22.8 352.8C45.7 353.7 91.3 355.3 137 358C182.7 360.7 228.3 364.3 274 359.8C319.7 355.3 365.3 342.7 411.2 345.3C457 348 503 366 548.8 368.8C594.7 371.7 640.3 359.3 686 348.7C731.7 338 777.3 329 823 326.2C868.7 323.3 914.3 326.7 937.2 328.3L960 330L960 301L937.2 299.3C914.3 297.7 868.7 294.3 823 298C777.3 301.7 731.7 312.3 686 322.2C640.3 332 594.7 341 548.8 338.3C503 335.7 457 321.3 411.2 319.5C365.3 317.7 319.7 328.3 274 330.2C228.3 332 182.7 325 137 320.5C91.3 316 45.7 314 22.8 313L0 312Z"
        fill="#65b5f8"></path>
    <path
        d="M0 374L22.8 375.7C45.7 377.3 91.3 380.7 137 383.3C182.7 386 228.3 388 274 383.5C319.7 379 365.3 368 411.2 370.7C457 373.3 503 389.7 548.8 392.5C594.7 395.3 640.3 384.7 686 375.7C731.7 366.7 777.3 359.3 823 356.5C868.7 353.7 914.3 355.3 937.2 356.2L960 357L960 328L937.2 326.3C914.3 324.7 868.7 321.3 823 324.2C777.3 327 731.7 336 686 346.7C640.3 357.3 594.7 369.7 548.8 366.8C503 364 457 346 411.2 343.3C365.3 340.7 319.7 353.3 274 357.8C228.3 362.3 182.7 358.7 137 356C91.3 353.3 45.7 351.7 22.8 350.8L0 350Z"
        fill="#72baf8"></path>
    <path
        d="M0 428L22.8 427C45.7 426 91.3 424 137 426.7C182.7 429.3 228.3 436.7 274 434.8C319.7 433 365.3 422 411.2 422C457 422 503 433 548.8 433C594.7 433 640.3 422 686 412C731.7 402 777.3 393 823 393C868.7 393 914.3 402 937.2 406.5L960 411L960 355L937.2 354.2C914.3 353.3 868.7 351.7 823 354.5C777.3 357.3 731.7 364.7 686 373.7C640.3 382.7 594.7 393.3 548.8 390.5C503 387.7 457 371.3 411.2 368.7C365.3 366 319.7 377 274 381.5C228.3 386 182.7 384 137 381.3C91.3 378.7 45.7 375.3 22.8 373.7L0 372Z"
        fill="#7fc0f9"></path>
    <path
        d="M0 541L22.8 541C45.7 541 91.3 541 137 541C182.7 541 228.3 541 274 541C319.7 541 365.3 541 411.2 541C457 541 503 541 548.8 541C594.7 541 640.3 541 686 541C731.7 541 777.3 541 823 541C868.7 541 914.3 541 937.2 541L960 541L960 409L937.2 404.5C914.3 400 868.7 391 823 391C777.3 391 731.7 400 686 410C640.3 420 594.7 431 548.8 431C503 431 457 420 411.2 420C365.3 420 319.7 431 274 432.8C228.3 434.7 182.7 427.3 137 424.7C91.3 422 45.7 424 22.8 425L0 426Z"
        fill="#8bc6f9"></path>
</svg>